<?xml version="1.0" standalone="no"?>
<!DOCTYPE svg PUBLIC "-//W3C//DTD SVG 20010904//EN">
<svg version="1.0" xmlns="http://www.w3.org/2000/svg" width="1216.000000pt" height="1216.000000pt" viewBox="0 0 1216.000000 1216.000000" preserveAspectRatio="xMidYMid meet">
<metadata>
Created by potrace 1.14, written by Peter Selinger 2001-2017
</metadata>
<g transform="translate(0.000000,1216.000000) scale(0.100000,-0.100000)"
fill="#000000" stroke="none">
<path d="M4705 9192 c-31 -48 -76 -118 -101 -157 -24 -38 -68 -107 -97 -153
-28 -45 -70 -111 -92 -145 -22 -34 -85 -133 -140 -220 -55 -87 -108 -170 -117
-185 -10 -15 -23 -37 -29 -49 -7 -13 -16 -23 -21 -23 -4 0 -8 -5 -8 -10 0 -9
-71 -128 -92 -155 -15 -19 -188 -290 -195 -305 -3 -8 -19 -33 -34 -55 -15 -22
-55 -85 -89 -140 -35 -55 -79 -125 -99 -155 -20 -30 -40 -62 -46 -72 -7 -13
-296 -468 -336 -530 -3 -5 -60 19 -125 53 -65 34 -198 102 -294 152 -96 49
-189 98 -207 109 l-31 19 -149 -194 c-81 -106 -159 -208 -173 -226 -14 -19
-33 -43 -43 -54 -9 -11 -17 -23 -17 -26 0 -3 -10 -17 -22 -31 -13 -14 -45 -56
-73 -93 -27 -38 -60 -79 -72 -92 -13 -13 -23 -26 -23 -29 0 -3 -41 -58 -91
-123 -50 -65 -101 -131 -113 -147 -11 -16 -28 -36 -36 -45 -8 -10 -26 -33 -40
-52 -13 -19 -28 -38 -32 -44 -5 -5 -29 -37 -54 -70 -25 -33 -50 -67 -57 -75
-76 -95 -117 -151 -117 -160 0 -5 -3 -10 -7 -10 -5 0 -33 -34 -63 -75 -30 -41
-58 -75 -62 -75 -5 0 -8 -5 -8 -11 0 -6 -12 -25 -26 -43 -37 -44 -155 -197
-179 -231 -11 -15 -31 -42 -45 -59 -14 -17 -46 -58 -70 -91 -25 -33 -48 -61
-52 -63 -5 -2 -8 -7 -8 -12 0 -5 -9 -19 -20 -32 -25 -29 -104 -132 -150 -195
-19 -26 -37 -50 -40 -53 -6 -5 -142 -183 -249 -325 -25 -33 -48 -62 -51 -65
-3 -3 -54 -70 -114 -150 -121 -162 -115 -157 139 115 66 71 140 150 165 176
25 26 88 93 140 149 52 56 118 126 146 156 28 29 95 101 150 160 54 59 124
133 154 165 30 32 98 104 151 161 53 57 110 117 125 134 119 126 279 297 327
348 32 33 89 95 127 136 38 41 95 102 127 136 32 33 110 116 173 184 63 68
125 134 138 147 l23 23 57 -62 c31 -33 71 -75 87 -93 17 -17 84 -89 150 -160
66 -70 149 -158 184 -194 71 -74 113 -126 107 -132 -3 -2 -8 -40 -11 -84 -4
-44 -8 -87 -10 -95 -2 -8 -6 -49 -10 -90 -11 -111 -14 -135 -15 -135 0 0 -3
-22 -5 -50 -3 -27 -7 -72 -10 -100 -10 -93 -16 -140 -20 -180 -5 -49 -15 -139
-20 -181 -2 -16 -7 -59 -10 -95 -4 -35 -8 -82 -11 -103 -2 -21 -6 -55 -8 -75
-3 -20 -8 -65 -11 -101 -3 -36 -8 -81 -10 -100 -3 -19 -7 -60 -10 -90 l-4 -55
18 45 c10 25 21 54 26 65 4 11 9 25 11 30 3 11 90 240 101 265 3 8 7 20 9 25
1 6 28 75 59 155 31 80 58 150 59 155 2 6 9 24 16 40 7 17 14 36 16 42 5 25
37 108 46 118 4 5 8 15 8 23 0 8 6 28 14 45 8 18 24 59 36 92 13 33 49 130 82
215 33 85 74 196 92 245 19 50 68 180 111 290 42 110 88 232 102 270 14 39 31
84 38 100 7 17 36 93 65 170 28 77 57 154 65 170 16 38 68 177 71 190 2 6 28
75 59 155 31 80 58 150 59 155 3 11 10 28 33 85 8 19 16 43 18 52 2 10 11 32
19 50 8 18 29 71 46 118 17 47 35 94 40 105 19 42 70 181 70 193 0 6 4 12 8
12 5 0 5 -28 0 -62 -5 -35 -11 -85 -13 -113 -7 -78 -14 -146 -21 -195 -4 -25
-8 -58 -9 -75 -4 -48 -16 -158 -20 -185 -2 -14 -6 -54 -9 -90 -3 -36 -8 -74
-10 -85 -9 -48 -16 -179 -7 -160 5 11 7 23 4 28 -2 4 0 7 5 7 5 0 9 6 9 13 1
10 16 54 69 197 3 8 5 15 4 15 -1 0 60 169 69 190 11 24 55 147 57 158 1 4 3
9 4 12 1 3 3 8 5 13 1 4 7 20 13 35 7 16 12 33 12 38 0 5 4 17 9 27 6 9 72
191 147 405 76 213 140 387 144 387 3 0 17 -26 30 -57 13 -32 34 -83 48 -113
13 -30 30 -68 37 -85 7 -16 25 -57 40 -90 15 -33 33 -76 40 -95 7 -19 23 -57
36 -85 13 -27 24 -52 24 -55 1 -3 13 -31 28 -64 15 -32 27 -60 27 -62 0 -2 14
-33 30 -69 17 -36 30 -68 30 -70 0 -3 13 -32 29 -65 16 -33 28 -60 26 -60 -2
0 10 -30 27 -67 46 -103 59 -132 148 -338 45 -104 90 -208 100 -230 55 -124
130 -305 130 -314 0 -6 5 -11 10 -11 6 0 10 -7 10 -15 0 -8 4 -23 10 -33 8
-15 31 -68 126 -289 19 -46 31 -53 14 -9 -5 15 -12 37 -14 49 -3 12 -19 67
-36 122 -17 55 -33 107 -35 115 -2 8 -4 16 -5 18 -2 1 -3 5 -4 10 -1 4 -5 16
-8 27 -4 11 -19 61 -33 110 -31 105 -73 245 -115 382 -16 54 -45 152 -65 218
-19 66 -38 127 -42 135 -3 8 -7 22 -9 31 -2 9 -19 69 -39 135 -20 65 -47 157
-61 204 -14 47 -28 92 -31 100 -3 8 -7 20 -8 26 -2 5 -22 73 -45 150 -23 76
-55 184 -71 239 -40 132 -60 195 -70 223 -5 12 -5 22 0 22 8 0 21 -23 20 -36
0 -4 3 -10 8 -13 8 -5 91 -148 149 -256 11 -22 66 -119 121 -215 54 -96 102
-182 106 -190 4 -8 15 -28 25 -45 10 -16 30 -50 44 -75 25 -45 94 -168 134
-239 11 -20 35 -63 53 -96 19 -33 50 -89 71 -125 20 -36 48 -85 62 -110 14
-25 67 -119 118 -210 51 -91 104 -185 118 -210 14 -25 91 -162 172 -305 81
-143 162 -287 180 -320 18 -33 49 -89 70 -125 20 -36 48 -85 62 -110 97 -176
224 -400 240 -422 11 -16 16 -28 13 -28 -3 0 2 -12 13 -27 10 -16 73 -125 139
-243 67 -118 135 -240 153 -270 17 -30 34 -63 37 -72 3 -10 9 -18 14 -18 5 0
9 -5 9 -11 0 -6 18 -42 41 -81 22 -38 39 -72 36 -74 -6 -6 -32 -11 -107 -18
-36 -4 -76 -9 -90 -11 -41 -7 -82 -13 -139 -20 -30 -4 -63 -9 -75 -11 -29 -5
-114 -18 -196 -29 -25 -3 -65 -10 -90 -15 -25 -5 -63 -12 -85 -14 -22 -3 -103
-16 -180 -30 -77 -14 -153 -28 -170 -31 -16 -3 -55 -10 -85 -16 -30 -6 -66
-12 -80 -15 -14 -2 -38 -7 -55 -11 -16 -3 -39 -7 -50 -9 -11 -1 -56 -10 -100
-19 -44 -9 -91 -19 -105 -21 -27 -5 -61 -11 -100 -20 -31 -6 -57 -12 -90 -18
-33 -6 -132 -27 -145 -30 -18 -5 -120 -25 -145 -30 -14 -2 -65 -13 -115 -25
-49 -11 -101 -22 -115 -25 -14 -2 -61 -12 -105 -21 -44 -10 -87 -19 -95 -20
-8 -2 -17 -4 -20 -5 -3 -1 -8 -2 -11 -2 -4 1 -22 -3 -40 -9 -19 -5 -50 -12
-69 -15 -19 -3 -51 -9 -70 -14 -19 -5 -53 -12 -75 -16 -22 -3 -43 -8 -46 -10
-7 -4 -210 -47 -226 -47 -7 0 -13 -4 -13 -9 0 -5 -4 -6 -10 -3 -5 3 -35 -1
-67 -9 -32 -8 -71 -17 -88 -19 -16 -3 -63 -12 -102 -21 -40 -9 -87 -18 -105
-21 -18 -3 -40 -8 -48 -10 -8 -2 -26 -6 -40 -9 -14 -2 -72 -14 -130 -25 -153
-31 -250 -49 -290 -56 -19 -3 -48 -8 -65 -12 -16 -3 -37 -7 -45 -9 -24 -3 -93
-15 -120 -20 -14 -3 -41 -7 -60 -10 -19 -2 -42 -7 -50 -9 -8 -3 -36 -7 -62
-10 -25 -3 -54 -7 -64 -9 -18 -4 -81 -13 -134 -21 -14 -2 -81 -11 -150 -20
-69 -8 -145 -18 -170 -21 -69 -9 -88 -11 -175 -19 -44 -3 -96 -8 -116 -10
-207 -24 -694 -23 -904 0 -71 8 -138 16 -160 20 -11 1 -40 6 -65 9 -24 4 -60
11 -80 16 -19 5 -48 12 -65 15 -67 12 -83 16 -160 39 -143 43 -288 98 -335
127 -8 5 -19 11 -25 13 -5 2 -17 7 -25 10 -8 3 -39 19 -68 36 -66 38 -68 23
-2 -20 28 -18 50 -36 50 -41 0 -5 4 -9 9 -9 5 0 50 -27 99 -60 50 -33 93 -60
97 -60 4 0 19 -8 33 -19 93 -65 447 -218 592 -256 8 -3 60 -18 115 -34 55 -17
114 -33 130 -36 17 -2 39 -7 50 -9 61 -15 173 -38 195 -41 14 -2 54 -8 90 -14
76 -12 141 -21 190 -26 33 -3 115 -11 205 -20 201 -20 785 -21 1025 0 30 2 93
7 140 10 47 3 101 8 120 10 19 2 69 7 110 10 42 3 91 7 110 10 19 2 60 7 90
10 30 3 75 7 100 10 25 2 56 6 70 9 14 2 50 7 80 10 96 11 144 17 170 21 14 3
61 9 105 15 98 14 132 19 167 26 15 3 42 7 60 9 50 6 105 14 198 30 47 8 103
17 125 20 23 3 52 8 65 10 14 3 45 8 68 10 24 3 47 7 50 9 4 2 30 7 57 10 28
4 57 9 65 11 8 2 30 7 48 10 37 6 79 13 125 20 17 3 106 19 197 36 91 17 176
32 190 34 20 3 140 25 221 40 9 2 32 6 50 9 19 3 59 10 89 16 30 6 71 13 90
16 19 2 46 7 60 10 14 3 48 10 75 15 28 4 64 11 80 14 125 24 196 36 230 41
22 2 48 7 58 10 20 6 43 10 115 19 24 3 47 7 52 10 4 3 25 7 46 10 22 2 50 7
64 10 61 12 87 16 120 20 19 2 46 7 60 10 14 3 41 8 60 11 19 2 46 7 60 9 14
3 41 7 60 10 19 3 46 7 60 10 14 2 43 7 65 10 23 3 52 8 65 10 14 3 45 8 70
11 25 3 56 7 70 10 14 2 45 6 70 10 45 5 53 7 120 18 37 6 73 11 155 21 28 4
60 8 71 10 19 3 42 6 154 20 14 1 52 6 85 9 33 4 80 9 105 12 62 8 84 11 165
18 39 4 91 9 117 12 26 3 71 7 100 9 29 2 91 7 138 10 261 20 482 28 755 29
226 0 499 -9 589 -20 23 -2 70 -6 106 -9 36 -2 83 -7 105 -9 22 -3 60 -8 85
-10 73 -9 134 -17 155 -20 41 -8 91 -16 118 -20 29 -5 128 -23 162 -30 130
-26 536 -136 575 -156 8 -5 44 -19 80 -31 144 -50 345 -142 540 -246 l65 -35
-35 30 c-19 17 -40 31 -47 32 -6 0 -13 4 -15 8 -1 4 -25 23 -53 42 -27 19 -52
37 -55 40 -28 30 -372 238 -510 309 -47 24 -86 48 -88 53 -2 4 -10 8 -17 8 -7
0 -55 20 -106 44 -116 54 -212 96 -304 131 -87 34 -285 105 -305 110 -8 2 -86
24 -172 49 -87 25 -168 47 -180 50 -13 2 -54 12 -93 21 -81 19 -259 55 -295
60 -14 2 -36 6 -50 9 -39 8 -102 17 -139 21 -19 3 -49 7 -68 10 -68 11 -171
23 -261 31 -226 19 -283 23 -447 29 -273 9 -621 5 -865 -10 -205 -13 -238 -15
-285 -19 -27 -3 -84 -8 -125 -11 -41 -4 -91 -8 -110 -11 -19 -2 -67 -6 -105
-10 l-71 -6 -44 93 c-24 52 -44 96 -45 99 -1 3 -15 34 -32 70 -53 113 -99 211
-166 355 -36 77 -88 190 -117 250 -28 61 -59 126 -67 145 -9 19 -33 71 -54
115 -94 201 -147 315 -206 445 -14 30 -46 98 -70 150 -25 52 -59 124 -75 160
-17 36 -45 97 -63 135 -49 106 -94 202 -130 280 -30 66 -32 76 -29 170 8 352
16 700 18 823 2 78 5 144 8 147 5 5 328 -417 337 -440 2 -5 7 -12 11 -15 3 -3
36 -45 73 -95 37 -49 70 -94 75 -100 4 -5 41 -55 82 -110 41 -55 78 -101 82
-103 5 -2 8 -10 8 -18 0 -8 4 -14 8 -14 4 0 16 -13 25 -30 10 -16 23 -35 30
-42 7 -7 36 -44 65 -83 28 -38 59 -79 68 -90 9 -11 28 -38 42 -60 15 -22 30
-42 33 -45 4 -3 35 -43 69 -90 35 -47 67 -86 72 -88 4 -2 8 -7 8 -12 0 -10
221 -304 232 -308 4 -2 8 -8 8 -13 0 -6 19 -34 41 -62 23 -29 122 -160 220
-292 99 -132 188 -251 198 -265 11 -14 90 -119 176 -235 86 -115 168 -225 183
-244 15 -18 31 -41 36 -50 5 -9 12 -18 15 -21 4 -3 46 -58 94 -122 49 -65 90
-118 92 -118 3 0 1 10 -4 23 -12 29 -23 60 -27 72 -1 6 -32 96 -69 200 -36
105 -91 264 -121 355 -31 91 -59 174 -64 185 -5 11 -25 68 -45 127 l-36 107
31 103 c17 57 33 114 36 127 3 14 7 28 9 32 4 6 73 236 79 264 2 6 11 37 21
70 10 33 20 65 21 70 2 9 60 205 68 230 2 6 4 13 6 17 1 4 17 58 36 120 19 62
36 120 38 128 11 46 56 194 61 198 3 3 12 -3 19 -14 8 -10 24 -30 36 -44 12
-14 31 -38 43 -53 12 -16 38 -47 57 -69 36 -42 64 -75 77 -93 5 -5 28 -35 53
-65 25 -30 52 -63 60 -74 8 -11 25 -30 38 -43 12 -13 22 -28 22 -33 0 -4 3
-10 8 -12 4 -1 27 -28 52 -58 25 -30 49 -60 55 -66 5 -7 26 -31 45 -55 78 -96
241 -295 253 -309 8 -8 45 -53 83 -100 37 -47 73 -90 79 -97 21 -25 80 -96
285 -348 117 -143 222 -271 234 -285 11 -14 82 -99 156 -190 74 -91 140 -171
147 -178 8 -8 26 -30 41 -50 15 -21 29 -39 32 -42 3 -3 37 -43 75 -90 38 -47
74 -90 80 -96 5 -7 21 -26 35 -44 14 -18 30 -37 36 -44 5 -6 32 -38 58 -71 27
-32 54 -64 60 -71 6 -6 22 -26 36 -44 14 -18 30 -38 35 -44 6 -6 60 -72 120
-146 60 -74 117 -144 126 -155 72 -81 71 -81 38 -30 -18 28 -35 52 -39 55 -3
3 -22 27 -41 55 -18 27 -38 54 -42 60 -4 5 -37 51 -73 100 -35 50 -71 98 -78
107 -8 9 -19 25 -25 36 -6 11 -17 26 -24 34 -7 7 -20 26 -30 41 -10 16 -25 36
-32 45 -8 9 -48 64 -89 122 -41 58 -78 110 -83 115 -27 33 -63 85 -63 89 0 3
-8 14 -17 24 -10 10 -36 44 -58 76 -22 31 -86 121 -143 199 -57 78 -110 151
-118 162 -20 28 -153 211 -297 408 -67 93 -126 177 -132 188 -5 10 -13 19 -17
19 -5 0 -8 7 -8 15 0 8 -4 15 -8 15 -4 0 -44 50 -88 112 -96 135 -121 171
-199 278 -33 45 -64 89 -70 99 -5 9 -12 18 -15 21 -3 3 -89 120 -190 260 -101
140 -188 257 -192 258 -4 2 -8 8 -8 12 0 8 -77 116 -115 162 -7 9 -22 29 -32
45 -18 28 -124 174 -133 183 -3 3 -9 12 -15 22 -9 14 -149 210 -187 261 -13
18 -21 11 -103 -85 -49 -56 -104 -119 -121 -138 -17 -19 -67 -75 -109 -125
-42 -49 -87 -101 -99 -115 -115 -132 -162 -187 -171 -198 -5 -7 -25 -28 -42
-47 -18 -20 -33 -38 -33 -40 0 -3 -8 -13 -17 -23 -10 -10 -43 -46 -73 -81 -30
-35 -60 -68 -65 -75 -6 -6 -37 -42 -70 -81 -33 -38 -70 -81 -83 -95 l-23 -25
-20 25 c-10 14 -25 32 -32 41 -6 9 -29 36 -49 60 -33 39 -144 176 -217 267
-14 18 -31 39 -36 45 -13 14 -249 304 -323 396 -66 82 -102 126 -125 154 -10
12 -28 35 -40 50 -12 15 -32 39 -44 52 -12 14 -34 42 -50 62 -15 21 -30 40
-33 43 -3 3 -35 41 -70 85 -35 44 -78 96 -94 116 -17 20 -38 44 -46 55 -71 89
-139 173 -157 194 -12 14 -30 36 -41 50 -15 18 -23 22 -33 14 -38 -29 -269
-212 -306 -241 -37 -30 -43 -32 -55 -19 -7 9 -24 29 -38 44 -41 47 -80 92
-180 207 -52 61 -99 115 -105 121 -5 6 -28 32 -50 58 -22 27 -49 58 -60 71
-11 12 -45 51 -75 86 -30 35 -90 104 -134 154 -43 49 -88 101 -100 115 -12 14
-65 75 -118 137 l-98 112 -55 -87z"/>
<path d="M9128 3985 c-1 -2 -66 -6 -143 -10 -77 -4 -156 -8 -175 -10 -19 -2
-69 -6 -110 -9 -72 -6 -106 -9 -215 -21 -27 -3 -72 -8 -100 -10 -27 -3 -70 -8
-95 -11 -25 -3 -56 -7 -70 -9 -14 -2 -47 -6 -75 -10 -67 -8 -105 -13 -135 -19
-14 -2 -52 -8 -85 -12 -33 -4 -62 -8 -65 -9 -3 -1 -30 -5 -60 -9 -30 -5 -64
-10 -75 -12 -10 -2 -37 -6 -60 -10 -22 -3 -62 -10 -90 -15 -27 -6 -63 -12 -80
-14 -37 -5 -103 -16 -130 -21 -11 -2 -33 -7 -50 -9 -16 -3 -88 -17 -160 -31
-71 -14 -141 -27 -155 -30 -14 -2 -48 -9 -76 -15 -28 -5 -64 -12 -80 -15 -50
-9 -67 -12 -144 -28 -41 -8 -86 -17 -100 -20 -145 -28 -284 -57 -289 -60 -4
-3 -26 -7 -51 -11 -25 -4 -48 -8 -51 -11 -4 -2 -24 -6 -45 -10 -22 -3 -55 -9
-74 -14 -19 -5 -71 -16 -115 -25 -44 -9 -87 -18 -95 -20 -81 -17 -329 -68
-345 -71 -11 -1 -60 -12 -110 -23 -49 -11 -101 -22 -115 -24 -14 -3 -41 -8
-60 -12 -19 -3 -42 -7 -50 -9 -8 -1 -40 -8 -70 -14 -30 -6 -67 -14 -82 -17
-26 -5 -49 -9 -108 -21 -14 -3 -41 -7 -60 -10 -19 -2 -42 -7 -50 -9 -14 -4
-44 -9 -115 -20 -16 -2 -43 -7 -60 -10 -48 -9 -148 -27 -170 -30 -11 -1 -42
-6 -70 -10 -27 -3 -63 -9 -80 -12 -41 -7 -81 -12 -143 -19 -29 -3 -62 -7 -73
-9 -11 -2 -47 -7 -80 -10 -33 -4 -68 -8 -77 -10 -44 -8 -214 -21 -402 -30
-210 -11 -518 -6 -645 10 -16 3 -55 7 -85 11 -30 3 -64 8 -75 11 -11 2 -33 6
-50 9 -16 2 -41 7 -55 11 -14 3 -32 7 -40 8 -8 1 -31 5 -50 9 l-35 7 30 -14
c50 -24 96 -43 175 -72 41 -15 82 -29 90 -32 8 -3 20 -7 25 -8 6 -2 42 -12 80
-23 103 -31 268 -69 380 -87 74 -13 90 -15 130 -19 22 -2 51 -7 65 -10 27 -6
69 -10 245 -23 133 -10 680 -10 825 0 178 11 248 17 297 22 27 3 75 7 108 10
33 3 71 8 85 10 23 3 122 14 180 20 14 2 43 5 65 8 22 4 64 9 94 12 30 4 61 8
70 10 9 1 39 6 66 9 52 7 158 23 210 32 17 3 46 7 65 9 19 2 46 6 60 9 14 3
81 14 150 26 69 12 136 23 150 25 14 3 52 9 85 15 33 5 70 12 81 14 12 2 37 7
55 10 19 3 45 8 59 11 14 3 39 8 55 10 64 11 141 25 165 30 14 3 88 17 165 31
138 25 180 34 200 38 6 2 30 6 55 10 59 10 70 12 100 19 14 4 39 8 55 11 17 3
57 10 90 17 33 6 71 13 85 15 14 1 36 5 50 8 14 4 36 8 50 11 14 3 36 7 50 10
13 2 42 7 65 11 22 3 59 10 83 15 23 5 59 12 78 15 20 3 46 8 58 10 69 13 144
27 166 29 14 2 36 6 50 9 13 3 40 8 60 11 20 3 47 7 60 10 13 3 40 7 60 10 20
3 45 7 55 9 41 8 291 48 315 51 14 1 45 6 70 10 25 4 56 8 70 10 14 2 39 6 55
9 17 2 55 8 85 11 30 3 84 11 120 16 36 6 90 12 120 15 30 3 66 7 80 9 14 3
58 7 97 10 40 4 82 8 94 10 11 2 60 7 107 10 48 4 102 8 120 10 41 5 191 14
351 20 69 3 126 7 128 9 2 2 20 0 39 -4 19 -4 36 -5 38 -1 2 3 37 5 78 4 291
-7 430 -12 478 -17 30 -3 84 -8 120 -11 36 -4 76 -8 90 -10 14 -2 50 -6 80 -9
30 -4 67 -9 83 -11 15 -3 39 -7 55 -10 81 -13 105 -18 192 -36 52 -12 111 -25
130 -29 145 -33 413 -122 529 -176 91 -42 101 -43 36 -2 -74 47 -353 186 -360
180 -3 -3 -5 0 -5 6 0 7 -8 12 -18 12 -10 0 -22 4 -28 9 -13 12 -273 113 -374
145 -47 15 -92 30 -100 34 -8 3 -19 7 -25 8 -5 1 -13 3 -17 4 -5 1 -11 3 -15
4 -5 2 -28 8 -53 15 -25 7 -49 14 -55 15 -5 2 -28 8 -50 14 -22 6 -51 13 -65
16 -14 3 -65 15 -115 26 -49 11 -106 23 -125 26 -19 3 -41 7 -49 10 -7 2 -34
7 -60 10 -25 3 -56 7 -68 9 -53 11 -71 14 -124 20 -31 3 -67 8 -79 10 -12 2
-50 7 -84 9 -33 3 -86 8 -116 11 -154 15 -234 17 -577 20 -204 2 -373 2 -375
0z"/>
</g>
</svg>
